# xmcd
#
# Track frame offsets:
#	150
#	12672
#	23942
#	34265
#	46132
#	55187
#	69897
#	80160
#	90995
#	107570
#	117642
#	131357
#	144870
#	154947
#	168732
#	178707
#	190220
#	206412
#
# Disc length: 2924 seconds
#
# Revision: 1
# Processed by: cddbd v1.5.2PL0 Copyright (c) Steve Scherf et al.
# Submitted via: audiograbber 1.83.01
#
DISCID=f40b6a12
DTITLE=Varoius - Compact Country - Disc 1
DYEAR=1900
DGENRE=Country
TTITLE0=Johnny Cash - Folsom Prison Blues
TTITLE1=Roy Orbison - Blue Bayou
TTITLE2=Kris Kristofferson - Help Me Make It Through The Night
TTITLE3=Col Joye - Heaven Is My Woman's Love
TTITLE4=Don Gibson - Blue Blue Day
TTITLE5=Guy Mitchell - Sparrow In The Treetop
TTITLE6=Dave Dudley - Six Days On The Road
TTITLE7=Mickey Gilley - Without You
TTITLE8=Charlie McCoy - Orange Blossom Special
TTITLE9=Hank Locklin - Please Help Me I'm Falling
TTITLE10=Patsy Cline - She's Got You
TTITLE11=Roy Orbison - Pretty Woman
TTITLE12=Jimmie Rodgers - Honeycomb
TTITLE13=Michael Jones - The Green, Green, Grass Of Home
TTITLE14=Marty Robbins - Lonely Old Bunkhouse
TTITLE15=Johnny Horton - All For The Love Of A Girl
TTITLE16=Lynn Anderson - The Devil Went Down To Georgia
TTITLE17=Leroy Van Dyke - The Auctioneer
EXTD=
EXTT0=
EXTT1=
EXTT2=
EXTT3=
EXTT4=
EXTT5=
EXTT6=
EXTT7=
EXTT8=
EXTT9=
EXTT10=
EXTT11=
EXTT12=
EXTT13=
EXTT14=
EXTT15=
EXTT16=
EXTT17=
PLAYORDER=
